<?xml version="1.0" encoding="UTF-8"?>
		<!DOCTYPE svg PUBLIC "-//W3C//DTD SVG 1.1//EN" "http://www.w3.org/Graphics/SVG/1.1/DTD/svg11.dtd">
		<svg version="1.1" id="Layer_1" xmlns="http://www.w3.org/2000/svg" xmlns:xlink="http://www.w3.org/1999/xlink" x="0px" y="0px"
		 width="1700px" height="599.66708984208px" viewBox="0 0 354.1875 103.71360252651"
		 style="enable-background:new 0 0 314.1875 83.713602526506;" xml:space="preserve"><style type="text/css">
<![CDATA[
	.st0{fill-rule:evenodd;clip-rule:evenodd;fill:#3F6943;}
	.st1{fill-rule:evenodd;clip-rule:evenodd;fill:#0E566D;}
	.st2{fill-rule:evenodd;clip-rule:evenodd;fill:#81A920;}
	.st3{fill-rule:evenodd;clip-rule:evenodd;fill:#592637;}
	.st4{fill-rule:evenodd;clip-rule:evenodd;fill:#F09712;}
	.st5{fill-rule:evenodd;clip-rule:evenodd;fill:#2D2555;}
	.st6{fill-rule:evenodd;clip-rule:evenodd;fill:#2E2656;}
	.st7{fill-rule:evenodd;clip-rule:evenodd;fill:#CC2A17;}
	.st8{fill-rule:evenodd;clip-rule:evenodd;fill:url(#SVGID_10_);}
	.st9{fill-rule:evenodd;clip-rule:evenodd;fill:url(#SVGID_11_);}
	.st10{fill-rule:evenodd;clip-rule:evenodd;fill:url(#SVGID_12_);}
	.st11{fill-rule:evenodd;clip-rule:evenodd;fill:url(#SVGID_13_);}
	.st12{fill-rule:evenodd;clip-rule:evenodd;fill:url(#SVGID_14_);}
	.st13{fill-rule:evenodd;clip-rule:evenodd;fill:url(#SVGID_15_);}
	.st14{fill-rule:evenodd;clip-rule:evenodd;fill:url(#SVGID_16_);}
	.st15{fill-rule:evenodd;clip-rule:evenodd;fill:url(#SVGID_17_);}
	.st16{fill-rule:evenodd;clip-rule:evenodd;fill:url(#SVGID_18_);}
	.st17{fill-rule:evenodd;clip-rule:evenodd;fill:url(#SVGID_19_);}
	.st18{fill-rule:evenodd;clip-rule:evenodd;fill:url(#SVGID_20_);}
	.st19{fill-rule:evenodd;clip-rule:evenodd;fill:url(#SVGID_21_);}
	.st20{fill-rule:evenodd;clip-rule:evenodd;fill:url(#SVGID_22_);}
	.st21{fill-rule:evenodd;clip-rule:evenodd;fill:url(#SVGID_23_);}
	.st22{fill-rule:evenodd;clip-rule:evenodd;fill:url(#SVGID_24_);}
	.st23{fill-rule:evenodd;clip-rule:evenodd;fill:url(#SVGID_25_);}
	.st24{fill-rule:evenodd;clip-rule:evenodd;fill:url(#SVGID_26_);}
	.st25{fill-rule:evenodd;clip-rule:evenodd;fill:url(#SVGID_27_);}
	.st26{fill-rule:evenodd;clip-rule:evenodd;fill:url(#SVGID_28_);}
	.st27{fill-rule:evenodd;clip-rule:evenodd;fill:url(#SVGID_29_);}
	.st28{fill-rule:evenodd;clip-rule:evenodd;fill:url(#SVGID_30_);}
	.st29{fill-rule:evenodd;clip-rule:evenodd;fill:url(#SVGID_31_);}
	.st30{fill-rule:evenodd;clip-rule:evenodd;fill:url(#SVGID_32_);}
	.st31{fill-rule:evenodd;clip-rule:evenodd;fill:url(#SVGID_33_);}
	.st32{fill-rule:evenodd;clip-rule:evenodd;fill:url(#SVGID_34_);}
	.st33{fill-rule:evenodd;clip-rule:evenodd;fill:url(#SVGID_35_);}
	.st34{fill-rule:evenodd;clip-rule:evenodd;fill:url(#SVGID_36_);}
	.st35{fill-rule:evenodd;clip-rule:evenodd;fill:url(#SVGID_37_);}
	.st36{fill-rule:evenodd;clip-rule:evenodd;fill:url(#SVGID_38_);}
	.st37{fill-rule:evenodd;clip-rule:evenodd;fill:url(#SVGID_39_);}
	.st38{fill-rule:evenodd;clip-rule:evenodd;fill:url(#SVGID_40_);}
	.st39{fill-rule:evenodd;clip-rule:evenodd;fill:url(#SVGID_41_);}
	.st40{fill-rule:evenodd;clip-rule:evenodd;fill:url(#SVGID_42_);}
	.st41{fill-rule:evenodd;clip-rule:evenodd;fill:url(#SVGID_43_);}
	.st42{fill-rule:evenodd;clip-rule:evenodd;fill:url(#SVGID_44_);}
	.st43{fill-rule:evenodd;clip-rule:evenodd;fill:url(#SVGID_45_);}
	.st44{fill-rule:evenodd;clip-rule:evenodd;fill:url(#SVGID_46_);}
	.st45{fill-rule:evenodd;clip-rule:evenodd;fill:url(#SVGID_47_);}
	.st46{fill-rule:evenodd;clip-rule:evenodd;fill:url(#SVGID_48_);}
	.st47{fill-rule:evenodd;clip-rule:evenodd;fill:url(#SVGID_49_);}
	.st48{fill-rule:evenodd;clip-rule:evenodd;fill:url(#SVGID_50_);}
	.st49{fill-rule:evenodd;clip-rule:evenodd;fill:url(#SVGID_51_);}
	.st50{fill-rule:evenodd;clip-rule:evenodd;fill:url(#SVGID_52_);}
	.st51{fill-rule:evenodd;clip-rule:evenodd;fill:url(#SVGID_53_);}
	.st52{fill-rule:evenodd;clip-rule:evenodd;fill:url(#SVGID_54_);}
	.st53{fill-rule:evenodd;clip-rule:evenodd;fill:url(#SVGID_1_);}
	.st54{fill-rule:evenodd;clip-rule:evenodd;fill:url(#SVGID_2_);}
	.st55{fill-rule:evenodd;clip-rule:evenodd;fill:url(#SVGID_3_);}
	.st56{fill-rule:evenodd;clip-rule:evenodd;fill:url(#SVGID_4_);}
	.st57{fill-rule:evenodd;clip-rule:evenodd;fill:url(#SVGID_5_);}
	.st58{fill-rule:evenodd;clip-rule:evenodd;fill:url(#SVGID_6_);}
	.st59{fill-rule:evenodd;clip-rule:evenodd;fill:url(#SVGID_7_);}
	.st60{fill-rule:evenodd;clip-rule:evenodd;fill:url(#SVGID_8_);}
	.st61{fill-rule:evenodd;clip-rule:evenodd;fill:url(#SVGID_9_);}
	.st62{fill-rule:evenodd;clip-rule:evenodd;fill:#025859;}
]]>
</style><style type='text/css'>.title{fill:#000000;}.slogan{fill:#000000;}</style><g transform="scale(1.0827881795624) translate(0, 0)"><g>
	<linearGradient id="SVGID_1_" gradientUnits="userSpaceOnUse" x1="105.9355" y1="68.7148" x2="-16.4462" y2="78.1502">
		<stop  offset="0.0079" style="stop-color:#E53711"/>
		<stop  offset="1" style="stop-color:#592637"/>
	</linearGradient>
	<polygon class="st53" points="71.698,69.847 68.17,77.313 20.523,77.313 17.014,69.885 	"/>
	<linearGradient id="SVGID_2_" gradientUnits="userSpaceOnUse" x1="23.5898" y1="-16.7202" x2="10.2367" y2="44.9098">
		<stop  offset="0.0079" style="stop-color:#E53711"/>
		<stop  offset="1" style="stop-color:#592637"/>
	</linearGradient>
	<polygon class="st54" points="9.415,37.27 26.415,7.733 30.797,0 30.758,0 22.514,0 22.406,0 22.461,0.093 1.063,37.27 	"/>
	<linearGradient id="SVGID_3_" gradientUnits="userSpaceOnUse" x1="40.4443" y1="-13.0684" x2="27.0912" y2="48.5616">
		<stop  offset="0.0079" style="stop-color:#E53711"/>
		<stop  offset="1" style="stop-color:#592637"/>
	</linearGradient>
	<polygon class="st55" points="27.194,37.27 39.677,15.236 44.105,7.419 48.243,0.116 48.309,0 48.176,0 39.957,0 39.823,0 
		39.89,0.116 35.433,7.984 31.854,1.87 27.745,9.122 31.325,15.236 18.842,37.27 	"/>
	<linearGradient id="SVGID_4_" gradientUnits="userSpaceOnUse" x1="56.1064" y1="-9.6748" x2="42.7533" y2="51.9552">
		<stop  offset="0.0079" style="stop-color:#E53711"/>
		<stop  offset="1" style="stop-color:#592637"/>
	</linearGradient>
	<polygon class="st56" points="44.261,37.27 66.107,0 57.871,0 57.795,0 57.832,0.065 52.974,8.313 49.312,1.966 45.174,9.27 
		48.754,15.474 44.271,23.083 40.753,17.073 36.645,24.324 40.081,30.195 35.913,37.27 	"/>
	<polygon class="st3" points="44.257,23.059 40.753,17.073 36.645,24.324 40.074,30.183 	"/>
	<polygon class="st3" points="52.943,8.261 49.312,1.966 45.174,9.27 48.731,15.436 	"/>
	<polygon class="st3" points="52.576,37.27 49.479,31.979 46.378,37.27 	"/>
	<polygon class="st3" points="69.687,37.27 58.122,17.233 53.914,24.414 61.333,37.27 	"/>
	<polygon class="st3" points="87.599,37.27 67.176,1.788 62.962,8.978 79.245,37.27 	"/>
	<linearGradient id="SVGID_5_" gradientUnits="userSpaceOnUse" x1="103.8037" y1="41.0684" x2="-18.578" y2="50.5037">
		<stop  offset="0.0079" style="stop-color:#E53711"/>
		<stop  offset="1" style="stop-color:#592637"/>
	</linearGradient>
	<polygon class="st57" points="78.751,52.976 75.078,46.612 85.098,46.612 88.639,39.114 88.66,39.114 88.648,39.094 88.648,39.094 
		0.012,39.094 0,39.114 0.055,39.114 3.596,46.612 13.549,46.612 9.943,52.976 18.296,52.976 21.901,46.612 30.41,46.612 
		26.66,52.976 35.013,52.976 38.763,46.612 49.691,46.612 53.417,52.976 61.771,52.976 58.045,46.612 66.725,46.612 70.397,52.976 	
		"/>
	<linearGradient id="SVGID_6_" gradientUnits="userSpaceOnUse" x1="104.9844" y1="56.3828" x2="-17.3974" y2="65.8181">
		<stop  offset="0.0079" style="stop-color:#E53711"/>
		<stop  offset="1" style="stop-color:#592637"/>
	</linearGradient>
	<polygon class="st58" points="70.58,68.023 67.221,62.287 76.188,62.287 79.726,54.799 8.967,54.8 12.505,62.287 21.174,62.287 
		17.773,68.06 26.131,68.054 29.527,62.287 58.868,62.287 62.229,68.029 	"/>
	<path class="st3" d="M21.174,62.287l-3.4,5.772l8.357-0.006l3.396-5.767H21.174z M70.58,68.023l-3.359-5.736h-8.353l3.361,5.742
		L70.58,68.023z"/>
	<path class="st3" d="M66.725,46.612h8.354l3.673,6.363h-8.354L66.725,46.612z M49.691,46.612h8.354l3.726,6.363h-8.354
		L49.691,46.612z M30.41,46.612h8.353l-3.75,6.363H26.66L30.41,46.612z M13.549,46.612h8.353l-3.605,6.363H9.943L13.549,46.612z"/>
	<polygon class="st3" points="35.466,8.003 31.854,1.87 27.745,9.122 31.325,15.236 	"/>
</g>
</g><g transform="scale(0.011962890625) translate(9362.2857142857, 2830.1522035568)"><path transform="translate(0,0) rotate(180) scale(-1, 1)" d="M142 676q0 227 17 332q31 193 132 295q166 168 574 168h471v-256h-498q-195 0 -288 -81q-99 -86 -99 -278v-856h-309v676z" class='title'/><path transform="translate(1389,0) rotate(180) scale(-1, 1)" d="M152 1471h309v-707l580 707h370l-590 -719l596 -752h-395l-561 731v-731h-309v1471z" class='title'/><path transform="translate(3556,0) rotate(180) scale(-1, 1)" d="M152 1471h1186v-1471h-310v1210h-567v-1210h-309v1471z" class='title'/><path transform="translate(5045,0) rotate(180) scale(-1, 1)" d="M961 0h-809v1471h756q269 0 376 -68q166 -105 166 -315q0 -240 -219 -353q223 -94 223 -333q0 -402 -493 -402zM918 260q203 0 203 172q0 174 -203 174h-457v-346h457zM461 1207v-340h453q202 0 202 170t-202 170h-453z" class='title'/><path transform="translate(6591,0) rotate(180) scale(-1, 1)" d="M1186 774h102q277 0 277 217q0 130 -87 180q-66 38 -208 38h-84v-435zM877 774v434l-86 1q-144 2 -209 -37q-86 -51 -86 -181q0 -217 276 -217h105zM877 514h-103q-153 0 -235 13q-387 61 -387 464q0 276 203 406q116 74 432 74h487q315 0 432 -74q203 -128 203 -406 q0 -403 -388 -464q-83 -13 -235 -13h-100v-514h-309v514z" class='title'/><path transform="translate(9447,0) rotate(180) scale(-1, 1)" d="M758 1219q-215 0 -299 -163q-61 -119 -61 -359q0 -226 67 -323q81 -118 293 -118h508v-256h-522q-154 0 -242 21q-118 28 -217 108q-225 181 -225 580q0 762 692 762h514v-252h-508z" class='title'/><path transform="translate(10789,0) rotate(180) scale(-1, 1)" d="M473 1213h-475v256h1272v-256h-477v-1213h-320v1213z" class='title'/><path transform="translate(12057,0) rotate(180) scale(-1, 1)" d="M574 1471h327l627 -1471h-344l-135 350h-639l-131 -350h-328zM725 1178l-215 -565h438z" class='title'/><path transform="translate(13535,0) rotate(180) scale(-1, 1)" d="M576 1471h319l615 -1471h-330l-453 1096l-442 -1096h-351z" class='title'/><path transform="translate(15014,0) rotate(180) scale(-1, 1)" d="M461 599l-1 -337h443q112 0 166 28q74 38 74 138t-63 139q-50 31 -156 31zM152 0v1469h309v-613h537q238 0 347 -86q122 -97 122 -329q0 -441 -514 -441h-801z" class='title'/></g><g transform="scale(0.016) translate(7000, 3428.5500789533)"><path transform="translate(0,0) rotate(180) scale(-1, 1)" d="M24 0l158 345c-45 22 -67 52 -83 118l-52 213h119l44 -181c10 -42 29 -66 77 -82l85 -29v292h120v-292l84 29c48 17 66 40 77 82l45 181h119l-52 -213c-16 -66 -41 -96 -85 -118l159 -345h-139l-130 300l-78 -30v-270h-120v270l-79 30l-130 -300h-139z" class='slogan'/><path transform="translate(863,0) rotate(180) scale(-1, 1)" d="M54 207v110c0 140 92 215 205 215c114 0 206 -80 206 -196v-110h-295v-19c0 -81 39 -119 106 -119c49 0 95 10 141 24l23 -96c-54 -20 -100 -29 -164 -29c-132 0 -222 76 -222 220zM170 312h178v24c0 54 -35 95 -89 95c-52 0 -89 -38 -89 -102v-17z" class='slogan'/><path transform="translate(1377,0) rotate(180) scale(-1, 1)" d="M23 0l69 335c22 108 72 184 190 184h172v-519h-117v421h-42c-47 0 -72 -36 -84 -95l-68 -326h-120z" class='slogan'/><path transform="translate(1903,0) rotate(180) scale(-1, 1)" d="M54 207v110c0 140 92 215 205 215c114 0 206 -80 206 -196v-110h-295v-19c0 -81 39 -119 106 -119c49 0 95 10 141 24l23 -96c-54 -20 -100 -29 -164 -29c-132 0 -222 76 -222 220zM170 312h178v24c0 54 -35 95 -89 95c-52 0 -89 -38 -89 -102v-17z" class='slogan'/><path transform="translate(2417,0) rotate(180) scale(-1, 1)" d="M212 -13c-50 0 -132 13 -172 30l22 96c42 -15 95 -26 135 -26c54 0 95 22 95 66c0 39 -18 67 -78 67h-63l-8 92h58c52 0 76 30 76 68c0 31 -24 52 -76 52c-37 0 -81 -10 -124 -26l-24 92c50 20 116 34 178 34c109 0 169 -59 169 -137c0 -56 -34 -100 -70 -117 c52 -18 82 -69 82 -122c0 -105 -77 -169 -200 -169z" class='slogan'/><path transform="translate(2881,0) rotate(180) scale(-1, 1)" d="M72 0v519h117v-200h176v200h117v-519h-117v220h-176v-220h-117z" class='slogan'/><path transform="translate(3435,0) rotate(180) scale(-1, 1)" d="M54 215v90c0 147 91 227 215 227c125 0 216 -80 216 -228v-89c0 -147 -91 -228 -216 -228c-124 0 -215 81 -215 228zM170 220c0 -89 34 -132 99 -132c66 0 100 43 100 132v79c0 89 -34 132 -100 132c-65 0 -99 -43 -99 -132v-79z" class='slogan'/><path transform="translate(3974,0) rotate(180) scale(-1, 1)" d="M54 207v110c0 140 92 215 205 215c114 0 206 -80 206 -196v-110h-295v-19c0 -81 39 -119 106 -119c49 0 95 10 141 24l23 -96c-54 -20 -100 -29 -164 -29c-132 0 -222 76 -222 220zM170 312h178v24c0 54 -35 95 -89 95c-52 0 -89 -38 -89 -102v-17z" class='slogan'/><path transform="translate(4718,0) rotate(180) scale(-1, 1)" d="M72 0v519h117v-210l91 27c24 9 35 27 43 58l32 125h115l-40 -149c-17 -62 -34 -90 -71 -109l135 -261h-128l-108 221l-69 -20v-201h-117z" class='slogan'/><path transform="translate(5231,0) rotate(180) scale(-1, 1)" d="M219 -13c-110 0 -178 66 -178 172s81 160 196 160h83v19c0 60 -29 92 -83 92c-46 0 -94 -10 -140 -24l-25 94c54 17 109 31 165 31c120 0 200 -75 200 -193v-338h-100l-9 31c-22 -25 -63 -44 -109 -44zM239 87c50 0 81 34 81 69v77h-84c-56 0 -75 -34 -75 -72 c0 -41 25 -74 78 -74z" class='slogan'/><path transform="translate(5730,0) rotate(180) scale(-1, 1)" d="M329 0v206c-24 -8 -76 -21 -135 -21c-74 0 -141 47 -141 139v195h114v-164c0 -48 25 -72 71 -72c32 0 69 10 91 20v216h117v-519h-117z" class='slogan'/><path transform="translate(6248,0) rotate(180) scale(-1, 1)" d="M54 207v110c0 140 92 215 205 215c114 0 206 -80 206 -196v-110h-295v-19c0 -81 39 -119 106 -119c49 0 95 10 141 24l23 -96c-54 -20 -100 -29 -164 -29c-132 0 -222 76 -222 220zM170 312h178v24c0 54 -35 95 -89 95c-52 0 -89 -38 -89 -102v-17z" class='slogan'/><path transform="translate(6762,0) rotate(180) scale(-1, 1)" d="M54 214v91c0 159 93 227 223 227c50 0 99 -9 149 -24l-24 -97c-39 11 -79 20 -120 20c-71 0 -111 -35 -111 -128v-86c0 -94 40 -129 111 -129c41 0 80 9 120 20l25 -97c-55 -16 -100 -24 -150 -24c-130 0 -223 68 -223 227z" class='slogan'/><path transform="translate(7236,0) rotate(180) scale(-1, 1)" d="M160 0v421h-137v98h390v-98h-136v-421h-117z" class='slogan'/><path transform="translate(7666,0) rotate(180) scale(-1, 1)" d="M68 0v519h211c110 0 177 -49 177 -138c0 -49 -25 -87 -68 -108c58 -22 88 -67 88 -123c0 -94 -84 -150 -205 -150h-203zM186 95h80c57 0 84 31 84 67c0 37 -24 69 -82 69h-82v-136zM186 315h70c53 0 84 24 84 62c0 39 -25 59 -79 59h-75v-121z" class='slogan'/><path transform="translate(8194,0) rotate(180) scale(-1, 1)" d="M54 215v90c0 147 91 227 215 227c125 0 216 -80 216 -228v-89c0 -147 -91 -228 -216 -228c-124 0 -215 81 -215 228zM170 220c0 -89 34 -132 99 -132c66 0 100 43 100 132v79c0 89 -34 132 -100 132c-65 0 -99 -43 -99 -132v-79z" class='slogan'/></g></svg>